<svg width="84" height="36" viewBox="0 0 84 36" fill="none" xmlns="http://www.w3.org/2000/svg">
<path d="M11.8016 9.2363H7.47991L7.4568 6.90744H11.0852C11.7246 6.90744 12.2484 6.82831 12.6567 6.67004C13.065 6.50423 13.3693 6.26682 13.5696 5.95781C13.7776 5.64127 13.8816 5.25689 13.8816 4.80469C13.8816 4.29219 13.7814 3.87766 13.5811 3.56112C13.3886 3.24458 13.0843 3.01471 12.6683 2.87151C12.26 2.72831 11.7323 2.65671 11.0852 2.65671H8.68167V16.4603H5.21506V0H11.0852C12.0635 0 12.9379 0.0904412 13.7083 0.271323C14.4863 0.452206 15.145 0.727298 15.6842 1.0966C16.2235 1.4659 16.6356 1.93318 16.9206 2.49844C17.2057 3.05616 17.3482 3.71939 17.3482 4.48814C17.3482 5.16645 17.1903 5.792 16.8744 6.3648C16.5663 6.93759 16.0771 7.40487 15.4069 7.76663C14.7444 8.1284 13.8777 8.32812 12.8069 8.36581L11.8016 9.2363ZM11.6514 16.4603H6.53237L7.88435 13.8149H11.6514C12.26 13.8149 12.7569 13.7207 13.142 13.5323C13.5272 13.3363 13.8123 13.0725 13.9971 12.7409C14.182 12.4093 14.2745 12.0287 14.2745 11.5991C14.2745 11.1167 14.1897 10.6984 14.0202 10.3442C13.8585 9.98998 13.5966 9.71866 13.2345 9.53024C12.8724 9.33428 12.3948 9.2363 11.8016 9.2363H8.46212L8.48523 6.90744H12.6452L13.4425 7.82316C14.4671 7.80809 15.2913 7.9852 15.9153 8.3545C16.547 8.71627 17.0054 9.18731 17.2904 9.76764C17.5832 10.348 17.7295 10.9698 17.7295 11.633C17.7295 12.6881 17.4946 13.5775 17.0246 14.301C16.5547 15.017 15.8653 15.5559 14.9562 15.9176C14.0549 16.2794 12.9533 16.4603 11.6514 16.4603Z" fill="#51AFFF"/>
<path d="M25.8761 16.6864C24.9054 16.6864 24.0349 16.5357 23.2645 16.2342C22.4942 15.9252 21.8394 15.4994 21.3001 14.9567C20.7686 14.4141 20.3603 13.7847 20.0753 13.0687C19.7902 12.3452 19.6477 11.5765 19.6477 10.7625V10.3103C19.6477 9.38327 19.7825 8.53538 20.0521 7.76663C20.3218 6.99788 20.707 6.33088 21.2077 5.76562C21.7161 5.20037 22.3324 4.767 23.0565 4.46553C23.7807 4.15652 24.5973 4.00202 25.5063 4.00202C26.3922 4.00202 27.178 4.14522 27.8636 4.43162C28.5492 4.71801 29.1231 5.125 29.5853 5.65257C30.0552 6.18015 30.4096 6.81323 30.6484 7.55184C30.8872 8.2829 31.0066 9.09687 31.0066 9.99375V11.3504H21.069V9.17978H27.7365V8.93106C27.7365 8.47886 27.6517 8.07564 27.4823 7.72141C27.3205 7.35965 27.074 7.07325 26.7427 6.86222C26.4115 6.65119 25.9878 6.54568 25.4716 6.54568C25.0325 6.54568 24.655 6.63989 24.3392 6.82831C24.0233 7.01673 23.7653 7.28051 23.565 7.61967C23.3724 7.95882 23.226 8.35827 23.1259 8.81801C23.0334 9.27022 22.9872 9.76764 22.9872 10.3103V10.7625C22.9872 11.2524 23.0565 11.7046 23.1952 12.1191C23.3416 12.5336 23.5457 12.8916 23.8076 13.1931C24.0773 13.4946 24.4008 13.7282 24.7783 13.894C25.1635 14.0598 25.5987 14.1427 26.0841 14.1427C26.6849 14.1427 27.2434 14.0297 27.7596 13.8036C28.2834 13.5699 28.7341 13.2195 29.1116 12.7522L30.7293 14.4706C30.4674 14.8399 30.1092 15.1941 29.6547 15.5333C29.2079 15.8724 28.6686 16.1513 28.0369 16.3698C27.4052 16.5809 26.6849 16.6864 25.8761 16.6864Z" fill="#51AFFF"/>
<path d="M39.6616 13.0801C39.6616 12.8464 39.5923 12.6354 39.4536 12.447C39.3149 12.2585 39.0569 12.0852 38.6794 11.9269C38.3096 11.7611 37.7742 11.6104 37.0732 11.4747C36.4415 11.3391 35.8522 11.1695 35.3052 10.966C34.766 10.755 34.2961 10.5025 33.8955 10.2085C33.5026 9.91461 33.1945 9.56792 32.9711 9.16847C32.7476 8.76149 32.6359 8.29798 32.6359 7.77794C32.6359 7.26544 32.7476 6.78309 32.9711 6.33088C33.2022 5.87867 33.5296 5.47923 33.9533 5.13254C34.3847 4.77831 34.9085 4.50322 35.5248 4.30726C36.1488 4.10377 36.8498 4.00202 37.6279 4.00202C38.7141 4.00202 39.6462 4.1716 40.4243 4.51075C41.21 4.84991 41.8109 5.31719 42.2269 5.91259C42.6506 6.50046 42.8624 7.17123 42.8624 7.92491H39.5345C39.5345 7.60836 39.4652 7.32573 39.3265 7.07702C39.1955 6.82077 38.9875 6.62105 38.7025 6.47785C38.4252 6.32711 38.0631 6.25174 37.6163 6.25174C37.2465 6.25174 36.9268 6.31581 36.6572 6.44393C36.3876 6.56452 36.1796 6.73033 36.0332 6.94136C35.8946 7.14485 35.8252 7.37095 35.8252 7.61967C35.8252 7.80809 35.8637 7.97766 35.9408 8.1284C36.0255 8.2716 36.1603 8.40349 36.3452 8.52408C36.5301 8.64467 36.7689 8.75772 37.0616 8.86323C37.3621 8.96121 37.7319 9.05165 38.171 9.13456C39.0723 9.31544 39.8773 9.55285 40.586 9.84678C41.2948 10.1332 41.8571 10.5251 42.2731 11.0225C42.6891 11.5124 42.8971 12.1568 42.8971 12.9557C42.8971 13.4983 42.7739 13.9958 42.5273 14.448C42.2808 14.9002 41.9265 15.2959 41.4642 15.635C41.002 15.9666 40.4474 16.2267 39.8003 16.4151C39.1609 16.596 38.4406 16.6864 37.6394 16.6864C36.4762 16.6864 35.4901 16.4829 34.6812 16.0759C33.8801 15.6689 33.2715 15.1527 32.8555 14.5271C32.4472 13.894 32.2431 13.2459 32.2431 12.5826H35.3977C35.4131 13.0273 35.5286 13.3853 35.7443 13.6566C35.9677 13.9279 36.2489 14.1239 36.5879 14.2445C36.9345 14.3651 37.3082 14.4254 37.7088 14.4254C38.1402 14.4254 38.4984 14.3688 38.7834 14.2558C39.0684 14.1352 39.2841 13.9769 39.4305 13.781C39.5846 13.5775 39.6616 13.3438 39.6616 13.0801Z" fill="#51AFFF"/>
<path d="M51.1823 4.19647V6.51176L43.9024 6.53437V4.22812L51.1823 4.19647ZM45.7051 1.20965H49.033V12.7748C49.033 13.129 49.0792 13.4004 49.1717 13.5888C49.2718 13.7772 49.4182 13.9091 49.6108 13.9845C49.8034 14.0523 50.046 14.0862 50.3388 14.0862C50.5468 14.0862 50.7317 14.0787 50.8934 14.0636C51.0629 14.041 51.2054 14.0184 51.321 13.9958L51.3325 16.3925C51.0475 16.4829 50.7394 16.5545 50.4081 16.6073C50.0768 16.66 49.7109 16.6864 49.3103 16.6864C48.5785 16.6864 47.9391 16.5696 47.3921 16.3359C46.8529 16.0948 46.4369 15.7104 46.1442 15.1828C45.8514 14.6552 45.7051 13.9619 45.7051 13.1027V1.20965Z" fill="#51AFFF"/>
<path d="M46.8911 31.2977H44.1026V20.4886C44.1026 19.6093 44.2827 18.867 44.643 18.2618C45.0096 17.6565 45.5306 17.1977 46.2061 16.8855C46.8879 16.5733 47.7112 16.4172 48.6761 16.4172C49.2229 16.4172 49.7536 16.4714 50.2682 16.5797C50.7828 16.6817 51.3134 16.8154 51.8602 16.9811L51.4549 19.1888C51.1012 19.0805 50.7216 18.9785 50.3164 18.883C49.9112 18.7874 49.4223 18.7396 48.8498 18.7396C48.2065 18.7396 47.7177 18.8893 47.3832 19.1888C47.0551 19.4819 46.8911 19.9151 46.8911 20.4886V31.2977ZM48.9656 20.9569V22.9065L42.5492 22.9008V20.9435L48.9656 20.9569ZM53.1531 20.9569V31.2977H50.3646V20.9569H53.1531Z" fill="#5497A7"/>
<path d="M58.4117 16.6179V31.2977H55.6232V16.6179H58.4117Z" fill="#5497A7"/>
<path d="M65.8219 20.9569V22.9065H59.7432V20.9569H65.8219ZM61.2484 18.4051H64.0272V28.1821C64.0272 28.4815 64.0658 28.7109 64.143 28.8702C64.2266 29.0295 64.3488 29.141 64.5096 29.2047C64.6704 29.262 64.8731 29.2907 65.1175 29.2907C65.2912 29.2907 65.4456 29.2843 65.5806 29.2716C65.7222 29.2525 65.8412 29.2333 65.9376 29.2142L65.9473 31.2403C65.7093 31.3168 65.452 31.3773 65.1754 31.4219C64.8988 31.4665 64.5933 31.4888 64.2588 31.4888C63.6477 31.4888 63.1138 31.3901 62.6571 31.1925C62.2068 30.9887 61.8595 30.6637 61.615 30.2177C61.3706 29.7717 61.2484 29.1856 61.2484 28.4592V18.4051Z" fill="#5497A7"/>
<path d="M72.2093 31.4888C71.3988 31.4888 70.6719 31.3614 70.0287 31.1065C69.3854 30.8453 68.8387 30.4853 68.3884 30.0266C67.9446 29.5678 67.6037 29.0358 67.3657 28.4305C67.1277 27.8189 67.0086 27.169 67.0086 26.4809V26.0986C67.0086 25.3149 67.1212 24.5981 67.3464 23.9482C67.5715 23.2984 67.8931 22.7345 68.3112 22.2566C68.7358 21.7788 69.2504 21.4124 69.855 21.1576C70.4597 20.8963 71.1415 20.7657 71.9005 20.7657C72.6403 20.7657 73.2964 20.8868 73.8689 21.1289C74.4414 21.371 74.9206 21.7151 75.3065 22.1611C75.6989 22.6071 75.9948 23.1423 76.1942 23.7667C76.3936 24.3847 76.4933 25.0728 76.4933 25.831V26.9779H68.1954V25.1429H73.7627V24.9326C73.7627 24.5503 73.692 24.2095 73.5505 23.91C73.4154 23.6042 73.2095 23.3621 72.933 23.1837C72.6564 23.0053 72.3026 22.9161 71.8716 22.9161C71.5049 22.9161 71.1898 22.9957 70.926 23.155C70.6623 23.3143 70.4468 23.5373 70.2796 23.824C70.1187 24.1107 69.9965 24.4484 69.9129 24.8371C69.8357 25.2193 69.7971 25.6399 69.7971 26.0986V26.4809C69.7971 26.895 69.855 27.2773 69.9708 27.6277C70.093 27.9782 70.2635 28.2808 70.4822 28.5357C70.7073 28.7905 70.9775 28.988 71.2927 29.1282C71.6143 29.2684 71.9777 29.3385 72.383 29.3385C72.8847 29.3385 73.3511 29.2429 73.782 29.0518C74.2194 28.8542 74.5957 28.558 74.9109 28.1629L76.2618 29.6156C76.043 29.9278 75.7439 30.2273 75.3644 30.514C74.9913 30.8007 74.5411 31.0364 74.0136 31.2212C73.4861 31.3996 72.8847 31.4888 72.2093 31.4888Z" fill="#5497A7"/>
<path d="M80.8545 23.2124V31.2977H78.0757V20.9569H80.6905L80.8545 23.2124ZM84 20.89L83.9518 23.4417C83.8167 23.4226 83.6527 23.4067 83.4597 23.3939C83.2731 23.3748 83.1027 23.3653 82.9483 23.3653C82.5559 23.3653 82.215 23.4162 81.9255 23.5182C81.6425 23.6137 81.4045 23.7571 81.2115 23.9482C81.025 24.1394 80.8835 24.3719 80.787 24.6459C80.6969 24.9199 80.6455 25.2321 80.6326 25.5825L80.073 25.4105C80.073 24.7415 80.1405 24.1266 80.2756 23.566C80.4107 22.9989 80.6069 22.5051 80.8642 22.0846C81.1279 21.6641 81.4495 21.3392 81.8291 21.1098C82.2086 20.8804 82.6428 20.7657 83.1316 20.7657C83.286 20.7657 83.4436 20.7785 83.6044 20.804C83.7652 20.8231 83.8971 20.8517 84 20.89Z" fill="#5497A7"/>
<path d="M17.9708 19.0874C11.5459 21.967 6.406 22.327 1.35788 20.2573C-0.386024 19.5373 -0.386024 19.6273 0.990739 21.6971C5.39638 28.2661 12.8309 29.346 22.8354 24.9366C27.7917 22.7769 29.5356 22.417 34.9509 22.7769C38.4387 22.9569 41.284 22.8669 41.284 22.5069C41.284 21.4271 37.9798 19.0874 34.5837 17.6476C29.6274 15.6679 25.0382 16.0278 17.9708 19.0874Z" fill="#51AFFF"/>
<path d="M25.6803 25.2067C24.3953 25.6566 21.7336 26.7364 19.7143 27.7263C14.3908 30.3359 10.6277 30.7859 6.4056 29.3461C2.3671 27.9963 1.99996 28.3562 4.20278 31.4158C7.96593 36.815 15.4004 37.445 25.0378 33.3055C31.0037 30.6959 32.1969 30.5159 38.0711 30.9659L44.496 31.5058L41.5589 28.8961C37.2451 25.0267 31.0037 23.6769 25.6803 25.2067Z" fill="#5497A7"/>
</svg>
