<svg width="30" height="24" viewBox="0 0 30 24" fill="none" xmlns="http://www.w3.org/2000/svg">
<path d="M27.3594 3.42136C27.3042 3.33711 27.2349 3.26607 27.1555 3.2123C27.0762 3.15852 26.9883 3.12307 26.8968 3.10796C26.8054 3.09285 26.7123 3.09839 26.6227 3.12425C26.5332 3.15012 26.449 3.1958 26.375 3.2587L15.0336 12.8907C14.993 12.9253 14.9437 12.944 14.893 12.944C14.8423 12.944 14.7929 12.9253 14.7524 12.8907L3.63362 3.21603C3.56021 3.15229 3.47649 3.10563 3.38723 3.07871C3.29798 3.05179 3.20494 3.04514 3.11342 3.05913C3.0219 3.07312 2.9337 3.10748 2.85386 3.16025C2.77402 3.21303 2.70409 3.28318 2.64807 3.3667C2.59205 3.45022 2.55104 3.54547 2.52738 3.64703C2.50372 3.74858 2.49787 3.85444 2.51017 3.95857C2.52247 4.06269 2.55267 4.16304 2.59905 4.25389C2.64543 4.34473 2.70709 4.4243 2.78049 4.48803L11.5227 12.096L2.87659 19.5094C2.8021 19.5726 2.73929 19.6519 2.69174 19.7427C2.64418 19.8335 2.61282 19.9341 2.59943 20.0387C2.58605 20.1434 2.59091 20.2499 2.61373 20.3524C2.63655 20.4549 2.67689 20.5513 2.73245 20.636C2.788 20.7208 2.85768 20.7922 2.93751 20.8464C3.01734 20.9005 3.10576 20.9361 3.19771 20.9514C3.28966 20.9666 3.38335 20.9611 3.47342 20.9351C3.5635 20.9091 3.6482 20.8632 3.72268 20.8L12.6828 13.104L13.8969 14.1707C14.18 14.4172 14.5259 14.5522 14.8824 14.5551C15.2389 14.5579 15.5865 14.4286 15.8727 14.1867L17.1477 13.104L26.2133 20.8C26.2873 20.8629 26.3715 20.9085 26.461 20.9344C26.5506 20.9602 26.6437 20.9658 26.7351 20.9507C26.8265 20.9356 26.9144 20.9001 26.9938 20.8464C27.0731 20.7926 27.1424 20.7216 27.1977 20.6374C27.2529 20.5531 27.2931 20.4574 27.3158 20.3555C27.3385 20.2536 27.3433 20.1477 27.3301 20.0437C27.3168 19.9397 27.2856 19.8397 27.2384 19.7494C27.1911 19.6591 27.1287 19.5802 27.0547 19.5174L18.3219 12.0934L27.2164 4.53336C27.364 4.40661 27.4617 4.21885 27.4884 4.01074C27.5152 3.80262 27.4688 3.59088 27.3594 3.42136Z" fill="black"/>
<path d="M26.4844 0H3.51562C2.58322 0 1.68901 0.421427 1.0297 1.17157C0.370395 1.92172 0 2.93913 0 4L0 20C0 21.0609 0.370395 22.0783 1.0297 22.8284C1.68901 23.5786 2.58322 24 3.51562 24H26.4844C27.4168 24 28.311 23.5786 28.9703 22.8284C29.6296 22.0783 30 21.0609 30 20V4C30 2.93913 29.6296 1.92172 28.9703 1.17157C28.311 0.421427 27.4168 0 26.4844 0ZM28.5938 20C28.5938 20.6365 28.3715 21.247 27.9759 21.6971C27.5803 22.1471 27.0438 22.4 26.4844 22.4H3.51562C2.95618 22.4 2.41966 22.1471 2.02407 21.6971C1.62849 21.247 1.40625 20.6365 1.40625 20V4C1.40625 3.36348 1.62849 2.75303 2.02407 2.30294C2.41966 1.85286 2.95618 1.6 3.51562 1.6H26.4844C27.0438 1.6 27.5803 1.85286 27.9759 2.30294C28.3715 2.75303 28.5938 3.36348 28.5938 4V20Z" fill="black"/>
</svg>
