<svg width="50" height="50" viewBox="0 0 50 50" fill="none" xmlns="http://www.w3.org/2000/svg">
<path fill-rule="evenodd" clip-rule="evenodd" d="M12.9811 1.27176C20.8961 -0.423921 29.104 -0.423921 37.019 1.27176L37.8622 1.45056C40.1759 1.9463 42.3009 3.04715 44.0011 4.63078C45.7013 6.21442 46.9101 8.21884 47.4932 10.4213C49.5023 18.0091 49.5023 25.9577 47.4932 33.5455C46.9101 35.748 45.7013 37.7524 44.0011 39.336C42.3009 40.9197 40.1759 42.0205 37.8622 42.5163L37.0165 42.6951C32.0592 43.7575 26.9725 44.1579 21.9008 43.8846L15.3018 49.5441C15.053 49.7576 14.749 49.9032 14.4215 49.9656C14.094 50.0281 13.755 50.0051 13.4399 49.8992C13.1248 49.7933 12.8452 49.6082 12.6301 49.3633C12.4151 49.1184 12.2726 48.8228 12.2175 48.5071L11.1256 42.2564C9.03166 41.632 7.13984 40.5033 5.63091 38.9782C4.12198 37.4531 3.04637 35.5826 2.50687 33.5455C0.497711 25.9577 0.497711 18.0091 2.50687 10.4213C3.08995 8.21884 4.29875 6.21442 5.99895 4.63078C7.69915 3.04715 9.82418 1.9463 12.1379 1.45056L12.9811 1.27176Z" fill="#7360F2"/>
<path d="M14.2394 10.8629C13.7438 10.7984 13.2384 10.8875 12.8074 11.1153H12.7701C11.7701 11.6393 10.8688 12.2991 10.1009 13.0755C9.46091 13.7353 9.11426 14.4022 9.0236 15.0453C8.97027 15.4263 9.0076 15.8122 9.13293 16.1766L9.18092 16.2004C9.90089 18.0891 10.8395 19.9064 11.9861 21.6165C13.4646 24.0185 15.284 26.24 17.3992 28.2259L17.4632 28.3069L17.5645 28.3736L17.6259 28.4379L17.7005 28.4951C19.9317 30.3901 22.4246 32.0229 25.1189 33.3539C28.1987 34.852 30.068 35.5594 31.1906 35.8547V35.869C31.5186 35.9595 31.8172 36 32.1185 36C33.0746 35.9369 33.9795 35.5898 34.6891 35.0139C35.5557 34.328 36.289 33.5206 36.8597 32.6227V32.606C37.3956 31.7009 37.2143 30.8482 36.441 30.2695C34.8877 29.0572 33.2082 27.9805 31.4252 27.0541C30.2306 26.4753 29.0174 26.8254 28.5267 27.4114L27.4788 28.5927C26.9401 29.1786 25.9642 29.0977 25.9642 29.0977L25.9375 29.1119C18.6552 27.4519 16.7112 20.8663 16.7112 20.8663C16.7112 20.8663 16.6206 19.9707 17.2952 19.5134L18.6072 18.5703C19.2365 18.113 19.6738 17.0316 18.9991 15.9646C17.9688 14.3706 16.7658 12.8709 15.4073 11.4869C15.111 11.1612 14.6955 10.9393 14.234 10.8605L14.2394 10.8629ZM26.5455 8C26.1919 8 25.8527 8.12547 25.6027 8.3488C25.3527 8.57213 25.2122 8.87504 25.2122 9.19088C25.2122 9.50672 25.3527 9.80963 25.6027 10.033C25.8527 10.2563 26.1919 10.3818 26.5455 10.3818C29.916 10.3818 32.7159 11.3654 34.9318 13.2518C36.0704 14.2831 36.9583 15.5049 37.5396 16.8435C38.1236 18.1844 38.3903 19.6159 38.3209 21.0497C38.3061 21.3655 38.4323 21.6737 38.6718 21.9064C38.9114 22.1391 39.2446 22.2773 39.5982 22.2906C39.9518 22.3038 40.2968 22.1911 40.5574 21.9771C40.8179 21.7632 40.9726 21.4656 40.9875 21.1497C41.0702 19.386 40.7424 17.6261 40.0249 15.9813C39.3042 14.3287 38.2115 12.8257 36.8143 11.5655L36.7877 11.5417C34.0385 9.19564 30.5613 8 26.5455 8Z" fill="white"/>
<path d="M27.0553 12.0023C26.7754 12.0023 26.507 12.1242 26.3091 12.341C26.1112 12.5579 26 12.852 26 13.1587C26 13.4655 26.1112 13.7596 26.3091 13.9765C26.507 14.1933 26.7754 14.3152 27.0553 14.3152H27.0912C29.016 14.4655 30.4175 15.1686 31.3989 16.3228C32.4056 17.5116 32.927 18.9895 32.8869 20.8167C32.8804 21.1234 32.9854 21.4203 33.1788 21.6422C33.3721 21.864 33.638 21.9926 33.9179 21.9997C34.1978 22.0067 34.4687 21.8917 34.6712 21.6798C34.8737 21.4679 34.991 21.1766 34.9975 20.8699C35.0481 18.4714 34.3432 16.4014 32.946 14.75V14.7454C31.5171 13.0662 29.5563 12.1781 27.1967 12.0046L27.1608 12L27.0553 12.0023Z" fill="white"/>
<path d="M27.2256 16.0043C27.0749 15.9911 26.923 16.0082 26.779 16.0547C26.635 16.1011 26.5019 16.1759 26.3877 16.2747C26.2734 16.3734 26.1803 16.494 26.114 16.6293C26.0477 16.7646 26.0094 16.9118 26.0015 17.0621C25.9937 17.2124 26.0163 17.3628 26.0682 17.5042C26.12 17.6456 26.2 17.7752 26.3033 17.8852C26.4066 17.9952 26.5312 18.0833 26.6695 18.1444C26.8078 18.2055 26.9571 18.2382 27.1085 18.2406C28.0503 18.2899 28.6519 18.5723 29.0305 18.951C29.4112 19.3319 29.6952 19.9436 29.747 20.9004C29.7498 21.0508 29.783 21.1991 29.8447 21.3364C29.9063 21.4737 29.9951 21.5973 30.1058 21.6997C30.2165 21.8022 30.3468 21.8814 30.4889 21.9327C30.6311 21.9841 30.7821 22.0064 30.9331 21.9984C31.0841 21.9904 31.232 21.9523 31.3679 21.8863C31.5037 21.8203 31.6249 21.7278 31.724 21.6143C31.8232 21.5007 31.8983 21.3685 31.945 21.2254C31.9917 21.0824 32.0089 20.9315 31.9957 20.7817C31.9236 19.4372 31.5 18.2496 30.6325 17.3757C29.7605 16.5018 28.5731 16.076 27.2256 16.0043Z" fill="white"/>
<path fill-rule="evenodd" clip-rule="evenodd" d="M12.9811 1.27176C20.8961 -0.423921 29.104 -0.423921 37.019 1.27176L37.8622 1.45056C40.1759 1.9463 42.3009 3.04715 44.0011 4.63078C45.7013 6.21442 46.9101 8.21884 47.4932 10.4213C49.5023 18.0091 49.5023 25.9577 47.4932 33.5455C46.9101 35.748 45.7013 37.7524 44.0011 39.336C42.3009 40.9197 40.1759 42.0205 37.8622 42.5163L37.0165 42.6951C32.0592 43.7575 26.9725 44.1579 21.9008 43.8846L15.3018 49.5441C15.053 49.7576 14.749 49.9032 14.4215 49.9656C14.094 50.0281 13.755 50.0051 13.4399 49.8992C13.1248 49.7933 12.8452 49.6082 12.6301 49.3633C12.4151 49.1184 12.2726 48.8228 12.2175 48.5071L11.1256 42.2564C9.03166 41.632 7.13984 40.5033 5.63091 38.9782C4.12198 37.4531 3.04637 35.5826 2.50687 33.5455C0.497711 25.9577 0.497711 18.0091 2.50687 10.4213C3.08995 8.21884 4.29875 6.21442 5.99895 4.63078C7.69915 3.04715 9.82418 1.9463 12.1379 1.45056L12.9811 1.27176ZM36.2056 4.75946C28.8263 3.17845 21.1738 3.17845 13.7945 4.75946L12.9488 4.94064C11.3089 5.29265 9.80295 6.07339 8.59809 7.19616C7.39324 8.31894 6.53666 9.73981 6.12348 11.301C4.2672 18.3115 4.2672 25.6553 6.12348 32.6658C6.53686 34.2273 7.39381 35.6484 8.59913 36.7712C9.80445 37.894 11.311 38.6746 12.9513 39.0262L13.1751 39.0739C13.5373 39.1515 13.867 39.3309 14.1223 39.589C14.3775 39.8472 14.5465 40.1725 14.6079 40.5233L15.3391 44.7142L19.9955 40.7212C20.1814 40.5612 20.399 40.4387 20.6353 40.3609C20.8716 40.2831 21.1217 40.2516 21.371 40.2682C26.3434 40.6063 31.3406 40.2489 36.2056 39.2074L37.0488 39.0262C38.6891 38.6746 40.1956 37.894 41.4009 36.7712C42.6063 35.6484 43.4632 34.2273 43.8766 32.6658C45.7322 25.6571 45.7322 18.3121 43.8766 11.301C43.4632 9.7395 42.6063 8.31842 41.4009 7.19562C40.1956 6.07282 38.6891 5.29225 37.0488 4.94064L36.2056 4.75946Z" fill="white"/>
</svg>
